<svg viewBox="0 0 54 64" xmlns="http://www.w3.org/2000/svg"><path d="M38.313.187c-2.6.563-5.513 2.15-7.3 3.963-2.726 2.775-4.138 6.112-4.138 9.775v.862l1.413-.075c2.724-.15 4.612-1 6.75-3.075 3.137-3.037 4.7-6.4 4.712-10.175V0l-.337.012c-.2 0-.688.088-1.1.175Zm-2 15.646c-1.4.25-2.963.738-5.513 1.713-2.288.862-2.4.9-3.488.9-1.037 0-1.237-.038-2.5-.538-4.462-1.762-6.325-2.212-8.812-2.1-2.238.1-3.637.5-5.925 1.688-4.5 2.312-7.775 7.137-8.837 12.975-.4 2.175-.4 6.237 0 8.8C2.375 46.646 4.963 52.72 9.4 58.483c3.463 4.488 6.338 6.163 9.5 5.525.913-.175 1.613-.4 3.763-1.187 4.7-1.725 6.4-1.7 11.5.187 2.125.788 3.137 1.013 4.612 1.013 3.425 0 5.663-1.688 9.388-7.113 2.012-2.937 3.65-6.037 4.575-8.662l.374-1.088-.837-.462c-2.962-1.65-4.913-3.55-6.188-6.025-1.587-3.075-2-7.088-1.075-10.588.313-1.212.925-2.55 1.663-3.662.738-1.113 2.488-2.863 3.713-3.725.8-.563.962-.738.875-.9-.5-.913-2.125-2.563-3.325-3.4-1.788-1.225-4.138-2.15-6.488-2.563-1.325-.225-3.913-.225-5.138 0Z"/></svg>