<svg width="47" height="48" fill="none" xmlns="http://www.w3.org/2000/svg"><g clip-path="url(#a)" fill="#000"><path d="M23.655 40.86c9.478 0 17.161-7.548 17.161-16.86S33.133 7.14 23.655 7.14C14.177 7.14 6.494 14.687 6.494 24s7.683 16.86 17.16 16.86ZM23.382.195a.312.312 0 0 1 .545 0l2.965 5.433a.304.304 0 0 1-.273.448H20.69a.304.304 0 0 1-.273-.448L23.383.195Z"/><path d="M37.737 4.496c.22-.11.476.066.447.307l-.744 6.12a.31.31 0 0 1-.484.214l-4.857-3.342a.301.301 0 0 1 .038-.52l5.6-2.78Zm8.983 12.101c.24.055.321.351.141.517l-4.574 4.22a.311.311 0 0 1-.51-.143l-1.535-5.627a.306.306 0 0 1 .37-.375l6.108 1.408Zm.141 14.246c.18.167.1.462-.14.518l-6.11 1.407a.306.306 0 0 1-.369-.374l1.535-5.627c.06-.222.34-.3.51-.143l4.574 4.22ZM37.785 43.56c.008.242-.262.395-.471.267L31.98 40.58a.301.301 0 0 1 .008-.522l5.135-2.912a.31.31 0 0 1 .464.253l.197 6.162Zm-13.858 4.244a.312.312 0 0 1-.545 0l-2.965-5.433a.304.304 0 0 1 .273-.447h5.93c.233 0 .382.245.272.447l-2.965 5.433Zm-13.926-3.977c-.21.128-.48-.025-.472-.267l.197-6.162a.31.31 0 0 1 .464-.253l5.135 2.912c.202.115.207.4.008.522l-5.332 3.248ZM.48 31.344a.302.302 0 0 1-.142-.517l4.575-4.22a.311.311 0 0 1 .51.143l1.534 5.627a.306.306 0 0 1-.369.374L.48 31.344Zm-.256-14.23a.302.302 0 0 1 .141-.517l6.109-1.408a.306.306 0 0 1 .37.375L5.308 21.19c-.06.221-.34.3-.51.143l-4.575-4.22ZM9.236 4.83a.309.309 0 0 1 .447-.308l5.6 2.78a.3.3 0 0 1 .038.52l-4.857 3.341a.31.31 0 0 1-.485-.213l-.743-6.12Z"/></g><defs><clipPath id="a"><path fill="#fff" d="M0 0h47v48H0z"/></clipPath></defs></svg>