<svg viewBox="0 0 43 43" xmlns="http://www.w3.org/2000/svg"><g clip-path="url(#a)"><path d="M42.607 40.692 29.55 27.556a16.728 16.728 0 0 0 3.9-10.76C33.45 7.52 25.93 0 16.655 0 7.377 0-.143 7.52-.143 16.797c0 9.276 7.52 16.797 16.797 16.797 4.215 0 8.064-1.556 11.014-4.122l13.038 13.12a1.344 1.344 0 0 0 1.901-1.9Zm-25.953-9.764c-7.805 0-14.132-6.327-14.132-14.131 0-7.805 6.327-14.132 14.132-14.132 7.804 0 14.131 6.327 14.131 14.132 0 7.804-6.327 14.131-14.131 14.131Z"/></g><defs><clipPath id="a"><path d="M0 0h43v43H0z"/></clipPath></defs></svg>