<svg width="42" height="31" fill="none" xmlns="http://www.w3.org/2000/svg"><path fill-rule="evenodd" clip-rule="evenodd" d="M30.643 24.986c-6.798 4.773-16.105 1.591-19.91 0l-.728.716 2.914 1.432-2.185 3.58a77.604 77.604 0 0 0-2.472-.972c-1.597-.607-3.24-1.23-4.67-1.99C1.604 26.698.779 24.454.779 22.204V17.11c0-6.921 3.4-11.48 6.07-13.843C8.711 1.62 11.001.954 13.171.734c1.173-.12 2.245.597 2.73 1.67l.174.385h9.955v-.955c0-1.91 5.584-.477 8.498 1.432 8.011 5.25 7.283 21.72 6.07 22.436-2.833 1.67-7.77 4.296-10.44 5.012l-1.943-3.58 3.399-1.432-.971-.716ZM18.26 16.042c0 2.126-1.522 3.85-3.399 3.85s-3.399-1.724-3.399-3.85c0-2.127 1.522-3.85 3.4-3.85 1.876 0 3.398 1.723 3.398 3.85Zm9.712 3.85c1.877 0 3.4-1.724 3.4-3.85 0-2.127-1.523-3.85-3.4-3.85s-3.399 1.723-3.399 3.85c0 2.126 1.522 3.85 3.4 3.85Z" fill="#fff"/></svg>