<svg viewBox="0 0 47 48" fill="none" xmlns="http://www.w3.org/2000/svg"><g clip-path="url(#a)" fill="#000"><path d="M23.655 40.861c9.478 0 17.161-7.549 17.161-16.86 0-9.313-7.683-16.861-17.161-16.861-9.478 0-17.161 7.548-17.161 16.86s7.683 16.861 17.16 16.861ZM23.382.195a.312.312 0 0 1 .545 0l2.965 5.433a.304.304 0 0 1-.273.448H20.69a.304.304 0 0 1-.273-.448L23.383.195Z"/><path d="M37.737 4.495c.22-.11.476.067.447.307l-.744 6.121a.31.31 0 0 1-.484.213l-4.857-3.341a.301.301 0 0 1 .038-.52l5.6-2.78Zm8.983 12.102c.24.056.321.351.141.517l-4.574 4.22a.311.311 0 0 1-.51-.143l-1.535-5.627a.306.306 0 0 1 .37-.374l6.108 1.407Zm.141 14.247c.18.166.1.462-.14.517l-6.11 1.408a.306.306 0 0 1-.369-.375l1.535-5.627c.06-.221.34-.3.51-.143l4.574 4.22ZM37.785 43.56c.008.242-.262.395-.471.267L31.98 40.58a.301.301 0 0 1 .008-.522l5.135-2.912a.31.31 0 0 1 .464.253l.197 6.162Zm-13.858 4.244a.312.312 0 0 1-.545 0l-2.965-5.433a.304.304 0 0 1 .273-.447h5.93c.233 0 .382.245.272.447l-2.965 5.433Zm-13.926-3.977c-.21.128-.48-.025-.472-.267l.197-6.162a.31.31 0 0 1 .464-.253l5.135 2.912c.202.115.207.4.008.522l-5.332 3.248ZM.48 31.344a.302.302 0 0 1-.142-.517l4.575-4.22a.311.311 0 0 1 .51.143l1.534 5.627a.306.306 0 0 1-.369.374L.48 31.344Zm-.256-14.23a.302.302 0 0 1 .141-.517l6.109-1.407a.306.306 0 0 1 .37.374l-1.535 5.627c-.06.222-.34.3-.51.143l-4.575-4.22ZM9.236 4.829c-.029-.241.226-.417.447-.308l5.6 2.78a.3.3 0 0 1 .038.52l-4.857 3.342a.31.31 0 0 1-.485-.213l-.743-6.121Z"/></g><defs><clipPath id="a"><path fill="#fff" d="M0 0h47v48H0z"/></clipPath></defs></svg>