<svg width="124" height="124" fill="none" xmlns="http://www.w3.org/2000/svg"><path d="M22.5 90.5v-1l2.5-6 8.5 3 9.5 11 6 20.5-7.5 4.5L32 120l-22-6 2.5-8-2-9.5 10-2 2-4Zm79.5-6-1-1-1-.5-8.5 3H79v31l4.5 5 9.5-2.5 13.5-8 7-4v-3L106 99l-1.5-8-2.5-6.5ZM46 32l10-6 12 4 6.5 1.5-2 11.5L47 44l-1-12Z" fill="#FFBD00"/><path d="M28.5 71 37 55l11.5-14 6.5 3.5 7-1.5 10-4.5 6-4.5 20.5 37.5-1 12.5-12 2-5 2.5-.5 5 1 13.5-3 9.5-27.5 1.5-7-19L30 84l-1.5-13ZM46 17h14l-4.5 9.5L47 32l-1-15Zm14.5 0 11 1 4 15L60 27.5l.5-10.5Z" fill="#fff"/><path d="M56.29.14c-2.979.533-5.91 2.156-8.38 4.65-2.954 2.955-4.068 6.2-4.262 12.425-.145 4.14.242 15.378.678 20.27.242 2.81.242 3.052-.242 4.263-.945 2.35-3.39 6.006-9.252 13.805-1.72 2.276-3.342 5.667-5.667 11.891-1.283 3.44-2.615 6.588-3.415 7.992-1.55 2.737-2.01 4.093-2.204 6.564-.145 1.937.218 3.875.727 3.875.17-.025.557-.17.896-.364.34-.193 1.066-.339 1.647-.363 3.124-.024 6.006 3.003 13.296 13.95 5.28 7.92 6.37 10.051 7.096 13.974.678 3.682-.678 6.007-4.19 7.218-2.47.871-4.238.605-12.036-1.672-2.737-.799-7.678-2.01-11.02-2.712-6.394-1.332-7.895-1.792-8.355-2.664-.388-.702-.194-1.502.896-4.069 1.26-2.906 1.26-4.432-.049-7.314-.533-1.187-.969-2.567-1.041-3.294-.097-1.114-.049-1.283.557-1.743.581-.46.969-.533 3.148-.533 3.318 0 4.747-.436 6.2-1.913 1.235-1.212 1.671-2.35 1.647-4.142-.024-1.356-.412-2.494-.436-1.26-.024 1.187-.605 2.326-1.72 3.415-1.404 1.357-2.688 1.89-5.206 2.204-3.609.412-3.972.509-4.723 1.139-.654.557-.727.726-.727 2.082 0 .824.218 2.374.46 3.464.92 3.754.897 4.02-.193 7.29-2.228 6.587-1.526 7.314 9.227 9.275 4.602.848 6.975 1.478 12.667 3.391 5.715 1.913 6.975 2.228 8.767 2.204 1.889-.024 3.754-.823 6.394-2.737 2.276-1.622 4.577-2.519 7.556-2.882 3.27-.436 19.617-.436 20.804-.024 1.26.46 2.034 1.114 2.979 2.616 1.041 1.622 2.543 2.615 4.747 3.1 3.22.75 7.12.266 8.694-1.066 6.515-5.522 8.477-6.878 13.974-9.615 4.36-2.18 7.096-4.02 7.847-5.255.242-.412.46-1.163.46-1.696 0-1.695-.92-2.664-4.504-4.819-1.55-.945-3.197-2.543-3.803-3.706-.557-1.138-1.138-3.075-1.477-4.989l-.291-1.768-.436.824c-.581 1.114-.557 4.02.049 5.982.775 2.47 1.719 3.584 3.875 4.577 3.342 1.55 3.972 1.938 4.674 2.785 1.768 2.107.17 3.536-6.975 6.2-4.577 1.72-6.709 2.834-9.397 4.941-5.013 3.875-6.466 4.601-9.13 4.601-1.696 0-2.93-.46-4.02-1.525-1.914-1.817-2.35-3.875-1.817-8.525.581-5.183.484-9.373-.29-12.957-.8-3.585-.751-5.91.12-7.968 1.187-2.737 2.98-2.204 4.796 1.453 1.501 3.027 2.858 3.923 5.958 3.9 2.615 0 4.407-.897 6.37-3.125 1.258-1.453 2.687-2.906 4.455-4.53.872-.847 1.211-2.082 1.357-5.255.266-5.57-1.72-13.126-5.522-20.949-1.89-3.875-3.221-5.885-6.37-9.542-5.764-6.733-8.113-11.407-9.736-19.35-.508-2.423-.678-4.19-.847-8.623-.243-6.757-.606-8.452-2.834-12.835-3.512-7-9.276-10.415-17.97-10.657-1.793-.048-3.803 0-4.48.121Zm14.725 7.775c1.817 1.283 1.792 1.913-.048 1.913-.388 0-1.138.339-1.72.75-.75.558-1.09.679-1.308.46-.193-.193-.145-.46.17-.992.218-.412.412-1.163.412-1.671 0-.654.145-1.018.436-1.187.58-.363.557-.363 2.058.727Zm-2.882 9.953c.606.194 1.43.751 2.131 1.43 1.502 1.5 2.253 3.753 2.253 6.756 0 2.882-.17 3.318-1.308 3.633-1.647.436-2.252-.218-1.599-1.768.46-1.114.46-2.228 0-3.608-.58-1.647-1.525-2.422-3.148-2.568-1.235-.096-1.356-.072-2.155.727-.46.46-.945 1.26-1.09 1.768-.29 1.066-.34 3.39-.049 4.069.194.508 3.536 2.083 6.418 3.051 1.356.436 2.059.824 2.398 1.308.557.727.581.267-.363 5.425-.388 1.986.072 3.463 1.84 6.055 2.107 3.1 3.44 6.127 4.384 10.002.339 1.38.654 2.059 1.332 2.858 2.955 3.342 4.747 9.784 5.28 18.842.339 5.595.678 6.2 3.342 5.813 1.913-.243 2.736-1.114 3.39-3.657.388-1.454.436-5.45.073-7.63-.581-3.656-3.39-10.244-6.055-14.24-1.09-1.623-1.138-1.72-.46-1.21 2.107 1.55 5.304 6.441 6.37 9.76.847 2.59 1.67 7.265 1.67 9.566.025 2.01-.41 4.868-.895 6.103-.121.315.097.533.896.944 1.235.606 2.615 1.623 2.615 1.89 0 .12-.63-.049-1.404-.364-4.239-1.72-8.985-.387-9.785 2.737-.218.92-.339 1.041-.968 1.041-1.599 0-2.93 1.042-3.754 2.906-.63 1.478-.678 5.014-.073 9.688.606 4.844.581 5.643-.508 11.625-.945 5.11-.92 5.086-1.381 5.086-.605 0-1.26-.751-1.26-1.453 0-.363.388-1.938.873-3.536 1.017-3.367 1.38-7.363.775-8.186-.533-.702-1.26-.291-2.447 1.38-1.356 1.889-2.93 3.367-4.456 4.118-2.858 1.453-7.096 2.373-11.213 2.421-3.706.025-5.74-.557-7.847-2.228-1.066-.847-1.574-.92-2.3-.339l-.534.436.63.848c.92 1.211 1.962 3.366 2.156 4.408.193 1.017-.243 2.252-1.018 2.93-.484.46-.508.46-.63-.363-.072-.436-.169-1.502-.242-2.349-.169-1.841-.847-3.391-2.688-6.225-.726-1.114-1.332-2.082-1.332-2.155 0-.048.412-.218.92-.363 1.042-.339 2.108-1.26 2.64-2.277.485-.944.34-3.221-.29-4.02-.242-.34-2.907-2.616-5.885-5.086-7.314-6.006-11.093-9.494-11.82-10.923-1.816-3.608-2.034-8.985-.46-10.995.34-.436.364-.363.194 1.21-.29 2.52-.145 4.893.412 6.685.678 2.228 2.398 4.287 3.294 3.924.63-.243.848-1.575 1.041-6.249.194-4.722.218-4.916 1.139-7.629 1.21-3.633 4.141-9.493 5.4-10.801.945-1.017.945-1.017.63-1.938-.823-2.276-.363-4.238 2.131-9.251 1.405-2.834 1.865-3.996 1.986-5.135.097-.799.242-1.453.34-1.453.266 0 1.235 1.114 2.567 2.906 2.276 3.076 3.511 4.118 4.94 4.118.993 0 3.27-1.236 6.563-3.56 1.526-1.09 3.875-2.568 5.207-3.27 2.035-1.114 2.422-1.429 2.422-1.913 0-.485-.145-.606-.799-.654-.605-.073-1.453.29-3.633 1.501-4.747 2.616-7.12 3.367-9.542 3.052-1.477-.218-2.422-.63-3.56-1.599-1.308-1.09-1.066-1.235 2.034-1.114 1.696.073 3.221 0 3.924-.17 1.622-.41 11.48-4.358 12.012-4.819.606-.532.436-1.356-.315-1.453-.436-.048-.823.17-1.404.775-.896.945-3.076 1.865-7.242 3.076-3.56 1.017-7.677 1.26-9.324.509-.605-.267-1.453-.92-1.865-1.454-.436-.532-1.26-1.307-1.865-1.72-.58-.435-1.065-.944-1.065-1.162 0-.871.847-2.082 2.034-2.833.678-.436 1.986-1.55 2.906-2.47l1.672-1.647v-1.38c-.025-1.575-.751-3.44-1.478-3.827-1.332-.703-3.076-.025-3.681 1.428-.63 1.55.218 4.699 1.356 4.99.678.17.727.484.17 1.114-.703.775-1.26.532-1.89-.848-1.307-2.858-1.283-5.716.073-8.404.775-1.55 1.623-2.228 2.761-2.228 1.26 0 2.277.63 2.98 1.865.823 1.405 1.113 2.494 1.307 4.844l.145 1.937 2.18.145c1.21.073 2.422.267 2.712.412.509.29.509.29.485-2.446-.049-2.47 0-2.834.581-4.069 1.26-2.664 4.19-3.947 7.096-3.076Zm.024 5.789c.388.484.606.993.557 1.38-.096.896-.58.92-.75.049-.097-.412-.436-.993-.775-1.308-.582-.557-.582-.872.024-.872.17 0 .581.339.944.75Zm-16.444.339c.387.581.581 2.155.29 2.446-.339.315-.678-.218-.678-1.114 0-.581-.12-.969-.363-1.066-.46-.17-.484-.872 0-.872.194 0 .533.267.75.606ZM79.855 39.01c1.26.267 1.72 1.817.8 2.64-.63.557-1.26.34-2.568-.847-1.356-1.236-1.986-2.665-1.598-3.512l.29-.63 1.163 1.09c.63.581 1.501 1.162 1.913 1.26ZM36.673 59.646c-.29 1.187-.896 2.276-1.502 2.664-.314.218-.63.339-.678.266-.218-.218 1.671-3.584 2.01-3.584.243 0 .291.17.17.654Z" fill="#000"/><path d="M53.523 28.65c-.339.17-.63.485-.678.727-.12.63.29.485.872-.315.315-.411.509-.726.485-.726-.049 0-.34.145-.679.315Zm6.273.17c.581.485 1.235.654 1.235.29 0-.387-.605-.774-1.187-.774l-.63.024.582.46Z" fill="#fff"/></svg>