<svg id="linux" width="56" height="66" xmlns="http://www.w3.org/2000/svg"><path d="M24.961.074c-1.585.284-3.145 1.148-4.46 2.475-1.573 1.573-2.166 3.3-2.269 6.613-.077 2.205.129 8.186.361 10.79.129 1.495.129 1.624-.129 2.269-.503 1.25-1.804 3.196-4.924 7.347-.915 1.212-1.779 3.017-3.016 6.33-.684 1.83-1.393 3.506-1.818 4.253-.825 1.457-1.07 2.179-1.173 3.494-.077 1.031.116 2.062.387 2.062.09-.013.296-.09.477-.193.18-.103.567-.18.876-.193 1.663-.013 3.197 1.598 7.077 7.425 2.81 4.215 3.39 5.35 3.777 7.438.361 1.959-.36 3.196-2.23 3.84-1.315.465-2.256.323-6.407-.889-1.456-.425-4.086-1.07-5.865-1.443-3.403-.71-4.202-.954-4.447-1.418-.206-.374-.103-.8.477-2.166.67-1.547.67-2.359-.026-3.893-.284-.632-.516-1.366-.554-1.753-.052-.593-.026-.683.296-.928.31-.245.516-.284 1.676-.284 1.766 0 2.527-.232 3.3-1.018.657-.645.89-1.25.877-2.204-.013-.722-.22-1.328-.232-.67-.013.63-.323 1.237-.916 1.817-.747.722-1.43 1.005-2.771 1.173-1.92.219-2.114.27-2.514.606-.348.296-.387.386-.387 1.108 0 .439.116 1.264.245 1.844.49 1.998.477 2.14-.103 3.88-1.186 3.506-.812 3.893 4.912 4.937 2.449.451 3.712.786 6.741 1.805 3.043 1.018 3.713 1.185 4.667 1.173 1.005-.013 1.998-.439 3.403-1.457 1.212-.864 2.436-1.34 4.022-1.534 1.74-.232 10.441-.232 11.073-.013.67.245 1.083.593 1.585 1.392.555.864 1.354 1.392 2.527 1.65 1.714.4 3.79.142 4.628-.567 3.467-2.939 4.511-3.66 7.438-5.117 2.32-1.16 3.776-2.14 4.176-2.798.129-.219.245-.618.245-.902 0-.902-.49-1.418-2.398-2.565-.825-.503-1.701-1.354-2.023-1.973-.297-.605-.606-1.637-.787-2.655l-.155-.941-.232.438c-.309.593-.296 2.14.026 3.184.413 1.315.916 1.908 2.063 2.436 1.779.825 2.114 1.032 2.488 1.483.94 1.121.09 1.882-3.713 3.3-2.436.915-3.57 1.508-5.001 2.63-2.669 2.062-3.442 2.449-4.86 2.449-.903 0-1.56-.245-2.14-.812-1.018-.967-1.25-2.063-.967-4.538.31-2.758.258-4.988-.155-6.896-.425-1.908-.4-3.146.065-4.241.632-1.457 1.586-1.173 2.552.773.8 1.611 1.521 2.089 3.171 2.076 1.393 0 2.346-.477 3.39-1.663a28.958 28.958 0 0 1 2.373-2.41c.464-.452.644-1.11.721-2.798.142-2.965-.915-6.987-2.939-11.15-1.005-2.063-1.714-3.133-3.39-5.08-3.068-3.583-4.318-6.07-5.182-10.299-.27-1.29-.36-2.23-.451-4.59-.129-3.596-.322-4.498-1.508-6.831C35.04 1.956 31.973.139 27.346.01c-.954-.026-2.024 0-2.385.064Zm7.837 4.138c.967.684.954 1.019-.025 1.019-.207 0-.606.18-.916.4-.4.296-.58.36-.696.244-.103-.103-.077-.245.09-.528.117-.22.22-.619.22-.89 0-.348.077-.541.232-.631.31-.194.296-.194 1.095.386ZM31.265 9.51c.322.104.76.4 1.134.761.8.8 1.199 1.998 1.199 3.596 0 1.534-.09 1.766-.696 1.934-.877.232-1.2-.116-.851-.941.245-.593.245-1.186 0-1.92-.31-.877-.812-1.29-1.676-1.367-.657-.052-.722-.039-1.147.387-.245.244-.503.67-.58.94-.155.568-.18 1.805-.026 2.166.103.271 1.882 1.109 3.416 1.624.722.232 1.096.439 1.276.697.297.386.31.141-.193 2.887-.206 1.057.038 1.843.98 3.223 1.121 1.65 1.83 3.261 2.333 5.324.18.734.348 1.095.709 1.52 1.572 1.78 2.526 5.209 2.81 10.03.18 2.977.36 3.3 1.779 3.093 1.018-.129 1.456-.593 1.804-1.946.207-.774.233-2.9.04-4.06-.31-1.947-1.806-5.453-3.224-7.58-.58-.864-.605-.916-.244-.645 1.121.825 2.823 3.429 3.39 5.195.45 1.38.89 3.867.89 5.092.012 1.07-.22 2.59-.478 3.248-.064.168.052.284.477.503.658.322 1.392.864 1.392 1.005 0 .065-.335-.025-.747-.193-2.256-.915-4.783-.206-5.208 1.457-.116.49-.18.554-.516.554-.85 0-1.56.554-1.998 1.547-.335.786-.36 2.668-.038 5.156.322 2.578.309 3.004-.271 6.188-.503 2.72-.49 2.707-.735 2.707-.322 0-.67-.4-.67-.774 0-.193.206-1.031.464-1.882.541-1.792.735-3.919.412-4.357-.283-.374-.67-.154-1.302.735-.721 1.005-1.56 1.792-2.372 2.191-1.52.774-3.776 1.264-5.968 1.29-1.972.012-3.055-.297-4.176-1.187-.568-.45-.838-.49-1.225-.18l-.284.232.336.451c.49.645 1.044 1.792 1.147 2.346.103.542-.13 1.2-.542 1.56-.257.245-.27.245-.335-.193-.038-.232-.09-.8-.129-1.25-.09-.98-.45-1.805-1.43-3.314-.387-.593-.71-1.108-.71-1.147 0-.026.22-.116.49-.193.555-.18 1.122-.67 1.405-1.212.258-.503.18-1.714-.154-2.14-.13-.18-1.547-1.392-3.133-2.707-3.893-3.197-5.904-5.053-6.29-5.813-.967-1.921-1.083-4.783-.245-5.853.18-.232.193-.193.103.645-.155 1.34-.077 2.604.22 3.558.36 1.186 1.275 2.281 1.752 2.088.335-.13.451-.838.554-3.326.104-2.514.117-2.617.606-4.06.645-1.934 2.205-5.054 2.875-5.75.503-.541.503-.541.335-1.031-.438-1.212-.193-2.256 1.134-4.924.748-1.508.993-2.127 1.058-2.733.051-.425.128-.774.18-.774.142 0 .657.593 1.366 1.547 1.212 1.637 1.87 2.192 2.63 2.192.529 0 1.74-.658 3.493-1.895.813-.58 2.063-1.367 2.772-1.74 1.083-.593 1.289-.76 1.289-1.019 0-.258-.077-.322-.425-.348-.323-.038-.774.155-1.934.8-2.527 1.392-3.79 1.791-5.079 1.624-.786-.116-1.289-.335-1.895-.851-.696-.58-.567-.657 1.083-.593.902.039 1.714 0 2.088-.09.864-.22 6.11-2.32 6.394-2.566.322-.283.232-.721-.168-.773-.232-.026-.438.09-.747.413-.477.502-1.637.992-3.855 1.637-1.894.541-4.086.67-4.962.27a3.045 3.045 0 0 1-.993-.773 5.613 5.613 0 0 0-.993-.915c-.309-.232-.567-.503-.567-.62 0-.463.451-1.108 1.083-1.507.361-.232 1.057-.825 1.547-1.315l.89-.877v-.735c-.014-.837-.4-1.83-.787-2.036-.709-.374-1.637-.013-1.96.76-.334.825.117 2.501.723 2.656.36.09.386.258.09.593-.374.412-.67.283-1.006-.451-.696-1.521-.683-3.042.039-4.473.413-.825.864-1.186 1.47-1.186.67 0 1.211.335 1.585.992.438.748.593 1.328.696 2.578l.078 1.032 1.16.077c.644.039 1.289.142 1.443.22.271.154.271.154.258-1.303-.026-1.315 0-1.508.31-2.165.67-1.418 2.23-2.102 3.777-1.638Zm.012 3.081c.207.258.323.529.297.735-.052.477-.31.49-.4.026a1.615 1.615 0 0 0-.412-.696c-.31-.297-.31-.464.013-.464.09 0 .31.18.503.4Zm-8.752.18c.206.31.31 1.148.154 1.303-.18.167-.36-.116-.36-.593 0-.31-.065-.516-.194-.567-.245-.09-.258-.464 0-.464.103 0 .284.141.4.322Zm14.979 7.993c.67.142.915.967.425 1.405-.335.296-.67.18-1.366-.451-.722-.658-1.057-1.418-.851-1.87l.154-.334.62.58c.334.309.799.618 1.018.67ZM14.52 31.747c-.155.631-.477 1.212-.8 1.418-.167.116-.335.18-.36.142-.117-.117.889-1.908 1.07-1.908.128 0 .154.09.09.348Z"/><path d="M23.488 15.25c-.18.09-.335.257-.36.386-.065.335.154.258.464-.168.167-.219.27-.386.257-.386-.025 0-.18.077-.36.167Zm3.339.09c.31.258.657.348.657.155 0-.207-.322-.413-.631-.413l-.335.013.309.245Z"/></svg>