<svg xmlns="http://www.w3.org/2000/svg" viewBox="0 0 512 512" style="enable-background:new 0 0 512 512" xml:space="preserve"><path transform="rotate(-134.999 195.34 121.79)" style="fill:#a5f2e5" d="M166.281 81.747h58.114v80.083h-58.114z"/><path d="M181.666 188.363c1.63 1.63 3.767 2.445 5.903 2.445s4.272-.815 5.903-2.445l62.529-62.529 62.529 62.529c1.63 1.63 3.767 2.445 5.903 2.445s4.272-.815 5.903-2.445l52.897-52.897a8.345 8.345 0 0 0 0-11.803L353.65 94.081a8.347 8.347 0 0 0-11.804 0 8.346 8.346 0 0 0 0 11.804l23.68 23.681-41.093 41.093L215.014 61.242l41.093-41.093 56.468 56.468a8.346 8.346 0 0 0 11.804 0 8.345 8.345 0 0 0 0-11.803L262.008 2.44a8.32 8.32 0 0 0-6.011-2.439 8.32 8.32 0 0 0-6.006 2.439L128.768 123.662a8.346 8.346 0 0 0 0 11.804l52.898 52.897zm21.436-115.426 41.093 41.093-56.627 56.627-41.094-41.093 56.628-56.627z"/><path style="fill:#62d9c7" d="m312.574 76.614-56.468-56.468-41.093 41.093 109.418 109.418 41.093-41.093-23.68-23.681a8.346 8.346 0 0 1 0-11.804l-17.466-17.466a8.345 8.345 0 0 1-11.804.001z"/><path transform="rotate(-134.999 195.327 285.852)" style="fill:#a5f2e5" d="M166.269 245.809h58.114v80.083h-58.114z"/><path style="fill:#62d9c7" d="M312.574 240.668 256.106 184.2l-41.093 41.093 109.418 109.418 41.093-41.093-23.68-23.68a8.346 8.346 0 0 1 0-11.804l-17.466-17.466a8.346 8.346 0 0 1-11.804 0z"/><path d="M353.648 258.135a8.347 8.347 0 0 0-11.804 11.804l23.68 23.68-41.093 41.093-109.418-109.418 41.093-41.093 56.468 56.468a8.346 8.346 0 0 0 11.804 0 8.346 8.346 0 0 0 0-11.804l-62.371-62.369a8.314 8.314 0 0 0-6.008-2.439 8.314 8.314 0 0 0-6.008 2.439l-121.223 121.22a8.346 8.346 0 0 0 0 11.804l52.898 52.897c1.63 1.63 3.767 2.445 5.903 2.445s4.272-.815 5.903-2.445l62.529-62.529 62.529 62.529a8.35 8.35 0 0 0 11.806 0l52.897-52.897a8.345 8.345 0 0 0 0-11.803l-29.585-29.582zm-150.546-21.144 41.093 41.093-56.627 56.627-41.094-41.093 56.628-56.627z"/><path transform="rotate(-134.999 195.343 442.982)" style="fill:#a5f2e5" d="M166.286 402.939H224.4v80.083h-58.114z"/><path style="fill:#62d9c7" d="m312.574 397.806-56.468-56.468-41.093 41.093L324.431 491.85l41.093-41.093-23.68-23.68a8.345 8.345 0 0 1 0-11.803l-17.466-17.466a8.348 8.348 0 0 1-11.804-.002z"/><path d="M353.648 415.272a8.347 8.347 0 0 0-11.804 0 8.345 8.345 0 0 0 0 11.803l23.68 23.68-41.093 41.093-109.418-109.417 41.093-41.093 56.468 56.468a8.346 8.346 0 0 0 11.804 0 8.346 8.346 0 0 0 0-11.804l-62.371-62.369a8.315 8.315 0 0 0-6.006-2.439 8.32 8.32 0 0 0-6.01 2.439L128.768 444.855a8.346 8.346 0 0 0 0 11.804l52.898 52.897c1.63 1.629 3.767 2.445 5.903 2.445s4.272-.815 5.903-2.445l62.529-62.529 62.529 62.529a8.35 8.35 0 0 0 11.806 0l52.897-52.897a8.345 8.345 0 0 0 0-11.803l-29.585-29.584zm-150.546-21.143 41.093 41.093-56.627 56.627-41.094-41.093 56.628-56.627z"/></svg>