<svg viewBox="0 0 43 50" fill="none" xmlns="http://www.w3.org/2000/svg"><path d="M20.214.908c-3.071.381-5.636 1.63-7.773 3.796-1.898 1.917-2.985 3.958-3.548 6.638-.229 1.125-.229 3.643 0 4.768.563 2.68 1.66 4.73 3.548 6.638 1.917 1.936 4.015 3.07 6.724 3.634 1.116.228 3.624.228 4.788 0 2.575-.516 4.71-1.66 6.618-3.548 1.927-1.898 3.071-4.015 3.634-6.724.229-1.125.229-3.643 0-4.768a13.963 13.963 0 0 0-2.022-4.864c-.6-.906-2.46-2.776-3.348-3.358C27.3 2.1 25.642 1.404 24.01 1.09c-.773-.154-3.13-.268-3.796-.182Zm-3.787 28.706c-5.34.649-10.157 3.672-13.256 8.336C1.349 40.678.31 43.901.128 47.344.071 48.403.081 48.527.271 48.9c.134.267.325.457.582.59.372.192.515.192 20.696.192 20.18 0 20.324 0 20.695-.191.258-.134.449-.324.582-.591.19-.372.2-.496.143-1.555-.248-4.702-2.04-8.822-5.302-12.198-3.09-3.195-7.077-5.14-11.436-5.589-1.44-.143-8.478-.105-9.804.058Z" fill="#000"/></svg>