<svg id="vk" width="44" height="25" xmlns="http://www.w3.org/2000/svg"><path d="M13.495 10.647c1.435 2.177 2.6 1.94 3.002 1.55 1.334-4.22.723-7.48.25-8.582-.133-1.072-1.473-1.395-2.126-1.423C14.688.317 19.986.35 22.626.602c2.669.066 2.919 1.38 2.919 2.176-.4 5.76-.167 8.288 0 8.832.367.87 1.167 1.046 1.5.586 1.235-.536 4.629-6.195 5.713-9.041.367-1.24 1.126-1.465 1.46-1.424l7.462-.125c.834-.067 1.293.558 1.418.879 0 2.679-5.128 8.413-5.378 8.958-1.96 2.344-1.804 3.306-1.251 3.85 4.127 4.06 5.35 5.986 6.045 6.74 2.035 3.516-2.71 2.763-5.336 2.888-3.378.162-4.936-.125-6.838-2.888-3.92-5.693-4.976-1.34-4.92 1.005.066 1.205-.806 1.674-1.251 1.758-14.01 1.548-18.596-12.6-23.015-20.344-1.301-2.11-.542-2.749 0-2.804H7.24c.934-.168 1.78.404 2.085.711.734 2.244 3.085 6.46 4.17 8.288Z"/></svg>