<svg id="windows" width="67" height="63" xmlns="http://www.w3.org/2000/svg"><path d="M50.12 2.094c-9.03 1.139-16.463 2.068-16.515 2.08-.066 0-.105 5.654-.105 12.563V29.3H67V14.644C67 .772 66.987-.013 66.778 0c-.131.013-7.63.943-16.659 2.094ZM14.525 6.543C6.648 7.538.157 8.35.105 8.363.039 8.362 0 13.072 0 18.83V29.3h29.312V16.999c0-11.633-.013-12.3-.222-12.288-.13.013-6.687.825-14.565 1.832ZM0 43.942v10.456l.497.078c.262.04 6.635.851 14.16 1.78 7.524.93 13.896 1.74 14.171 1.78l.485.078V33.487H0v10.455Zm33.467 2.074v12.55l.497.078c.262.04 7.577.969 16.253 2.042a3748.692 3748.692 0 0 1 16.266 2.041l.484.079V33.467h-33.5v12.55Z"/></svg>