<svg width="42" height="31" viewBox="0 0 42 31" fill="none" xmlns="http://www.w3.org/2000/svg">
<path fill-rule="evenodd" clip-rule="evenodd" d="M30.6428 24.9859C23.8446 29.7594 14.5376 26.5771 10.7338 24.9859L10.0054 25.7019L12.9189 27.134L10.7338 30.7142C9.94864 30.3833 9.11167 30.0653 8.26178 29.7423C6.66473 29.1353 5.02208 28.5111 3.59193 27.7524C1.60444 26.698 0.779297 24.454 0.779297 22.2042V17.1094C0.779297 10.1876 4.1784 5.62891 6.84912 3.26611C8.7107 1.61915 11.0005 0.954223 13.1713 0.733629C14.3439 0.614472 15.4161 1.33069 15.9016 2.40466L16.0752 2.78864H26.0297V1.83393C26.0297 -0.0755019 31.614 1.35657 34.5275 3.26611C42.539 8.51693 41.8113 24.9859 40.5973 25.7019C37.7649 27.3725 32.8279 29.998 30.1572 30.7142L28.2149 27.134L31.614 25.7019L30.6428 24.9859ZM18.2602 16.0416C18.2602 18.1681 16.7384 19.892 14.8611 19.892C12.9838 19.892 11.462 18.1681 11.462 16.0416C11.462 13.9152 12.9838 12.1913 14.8611 12.1913C16.7384 12.1913 18.2602 13.9152 18.2602 16.0416ZM27.9722 19.892C29.8495 19.892 31.3713 18.1681 31.3713 16.0416C31.3713 13.9152 29.8495 12.1913 27.9722 12.1913C26.0949 12.1913 24.5731 13.9152 24.5731 16.0416C24.5731 18.1681 26.0949 19.892 27.9722 19.892Z" fill="white"/>
</svg>
