<svg viewBox="0 0 54 64" xmlns="http://www.w3.org/2000/svg">
<path d="M38.3125 0.187111C35.7125 0.749611 32.8 2.33711 31.0125 4.14961C28.2875 6.92461 26.875 10.2621 26.875 13.9246V14.7871L28.2875 14.7121C31.0125 14.5621 32.9 13.7121 35.0375 11.6371C38.175 8.59961 39.7375 5.23711 39.75 1.46211V-0.000389099L39.4125 0.0121117C39.2125 0.0121117 38.725 0.0996113 38.3125 0.187111Z"/>
<path d="M36.3125 15.8331C34.9125 16.0831 33.35 16.5706 30.8 17.5456C28.5125 18.4081 28.4 18.4456 27.3125 18.4456C26.275 18.4456 26.075 18.4081 24.8125 17.9081C20.35 16.1456 18.4875 15.6956 16 15.8081C13.7625 15.9081 12.3625 16.3081 10.075 17.4956C5.575 19.8081 2.3 24.6331 1.2375 30.4706C0.8375 32.6456 0.8375 36.7081 1.2375 39.2706C2.375 46.6456 4.9625 52.7206 9.4 58.4831C12.8625 62.9706 15.7375 64.6456 18.9 64.0081C19.8125 63.8331 20.5125 63.6081 22.6625 62.8206C27.3625 61.0956 29.0625 61.1206 34.1625 63.0081C36.2875 63.7956 37.3 64.0206 38.775 64.0206C42.2 64.0206 44.4375 62.3331 48.1625 56.9081C50.175 53.9706 51.8125 50.8706 52.7375 48.2456L53.1125 47.1581L52.275 46.6956C49.3125 45.0456 47.3625 43.1456 46.0875 40.6706C44.5 37.5956 44.0875 33.5831 45.0125 30.0831C45.325 28.8706 45.9375 27.5331 46.675 26.4206C47.4125 25.3081 49.1625 23.5581 50.3875 22.6956C51.1875 22.1331 51.35 21.9581 51.2625 21.7956C50.7625 20.8831 49.1375 19.2331 47.9375 18.3956C46.15 17.1706 43.8 16.2456 41.45 15.8331C40.125 15.6081 37.5375 15.6081 36.3125 15.8331Z"/>
</svg>
