<svg width="47" height="48" viewBox="0 0 47 48" fill="none" xmlns="http://www.w3.org/2000/svg">
<g clip-path="url(#clip0_24_411)">
<path d="M23.6548 40.8607C33.1327 40.8607 40.816 33.3119 40.816 23.9999C40.816 14.688 33.1327 7.13916 23.6548 7.13916C14.177 7.13916 6.49365 14.688 6.49365 23.9999C6.49365 33.3119 14.177 40.8607 23.6548 40.8607Z" fill="black"/>
<path d="M23.382 0.195412C23.4986 -0.0182623 23.8106 -0.0182621 23.9272 0.195412L26.8917 5.62839C27.0021 5.83078 26.8529 6.07573 26.6192 6.07573H20.69C20.4563 6.07573 20.3071 5.83078 20.4175 5.62839L23.382 0.195412Z" fill="black"/>
<path d="M37.7373 4.4956C37.9576 4.38628 38.213 4.56201 38.1838 4.80276L37.4404 10.9238C37.4127 11.1518 37.1476 11.2684 36.956 11.1367L32.0991 7.79542C31.9077 7.66371 31.9284 7.37894 32.1372 7.27539L37.7373 4.4956Z" fill="black"/>
<path d="M46.7202 16.5966C46.9605 16.6521 47.0412 16.948 46.8612 17.114L42.2872 21.3336C42.1169 21.4907 41.8373 21.4124 41.7769 21.1907L40.2423 15.5639C40.1818 15.342 40.384 15.137 40.6116 15.1894L46.7202 16.5966Z" fill="black"/>
<path d="M46.8613 30.8435C47.0411 31.0096 46.9604 31.3055 46.7201 31.3609L40.6115 32.7681C40.3839 32.8205 40.1817 32.6156 40.2423 32.3937L41.7768 26.7669C41.8374 26.5451 42.1168 26.4669 42.2871 26.6239L46.8613 30.8435Z" fill="black"/>
<path d="M37.7855 43.5596C37.7932 43.8019 37.5233 43.9552 37.3135 43.8273L31.9812 40.5786C31.7826 40.4576 31.7871 40.1721 31.9895 40.0573L37.1244 37.1446C37.3268 37.0298 37.5807 37.1686 37.5881 37.3982L37.7855 43.5596Z" fill="black"/>
<path d="M23.9272 47.8041C23.8106 48.0179 23.4986 48.0179 23.382 47.8041L20.4175 42.3712C20.3071 42.1688 20.4563 41.9238 20.69 41.9238H26.6192C26.8529 41.9238 27.0021 42.1688 26.8917 42.3712L23.9272 47.8041Z" fill="black"/>
<path d="M10.001 43.8273C9.79128 43.9552 9.52121 43.8019 9.52897 43.5596L9.72646 37.3982C9.73382 37.1686 9.98772 37.0298 10.1901 37.1446L15.3249 40.0573C15.5273 40.1721 15.532 40.4576 15.3333 40.5786L10.001 43.8273Z" fill="black"/>
<path d="M0.479561 31.3438C0.239314 31.2885 0.158602 30.9926 0.338496 30.8266L4.91256 26.607C5.08295 26.4497 5.3624 26.528 5.4229 26.7497L6.95748 32.3767C7.01798 32.5984 6.81577 32.8035 6.58822 32.7511L0.479561 31.3438Z" fill="black"/>
<path d="M0.224238 17.114C0.0443444 16.948 0.125057 16.6521 0.365304 16.5966L6.47397 15.1894C6.70151 15.137 6.90372 15.342 6.84323 15.5639L5.30864 21.1907C5.24815 21.4124 4.9687 21.4907 4.79831 21.3336L0.224238 17.114Z" fill="black"/>
<path d="M9.23618 4.82911C9.20695 4.58838 9.4624 4.41264 9.68265 4.52197L15.2829 7.30177C15.4915 7.40532 15.5122 7.69007 15.3208 7.82178L10.4639 11.1631C10.2724 11.2948 10.0072 11.1782 9.97949 10.9502L9.23618 4.82911Z" fill="black"/>
</g>
<defs>
<clipPath id="clip0_24_411">
<rect width="47" height="48" fill="white"/>
</clipPath>
</defs>
</svg>
