<svg id="linux" width="56" height="66" viewBox="0 0 56 66" xmlns="http://www.w3.org/2000/svg">
<path d="M24.961 0.0744705C23.3755 0.358063 21.8157 1.22173 20.5009 2.54947C18.9282 4.12212 18.3353 5.84947 18.2321 9.16236C18.1548 11.3667 18.361 17.3479 18.5931 19.9518C18.722 21.4471 18.722 21.576 18.4642 22.2206C17.9614 23.471 16.6595 25.4174 13.54 29.5682C12.6247 30.7799 11.761 32.5846 10.5235 35.8975C9.84034 37.728 9.13136 39.4038 8.70597 40.1514C7.88097 41.6081 7.63605 42.3299 7.53292 43.6448C7.45558 44.676 7.64894 45.7073 7.91964 45.7073C8.00988 45.6944 8.21613 45.617 8.39659 45.5139C8.57706 45.4108 8.96378 45.3335 9.27316 45.3206C10.936 45.3077 12.47 46.919 16.3501 52.7456C19.1603 56.9608 19.7403 58.0952 20.1271 60.1835C20.488 62.1428 19.7661 63.3803 17.897 64.0249C16.5821 64.4889 15.6411 64.3471 11.4903 63.1354C10.0337 62.71 7.40402 62.0655 5.62511 61.6917C2.22198 60.9827 1.42277 60.7377 1.17784 60.2737C0.971594 59.8999 1.07472 59.4745 1.6548 58.1081C2.32511 56.5612 2.32511 55.7491 1.62902 54.2151C1.34542 53.5835 1.11339 52.8487 1.07472 52.462C1.02316 51.869 1.04894 51.7788 1.3712 51.5338C1.68058 51.2889 1.88683 51.2502 3.04698 51.2502C4.813 51.2502 5.57355 51.0182 6.34698 50.2319C7.00441 49.5874 7.23644 48.9815 7.22355 48.0276C7.21066 47.3057 7.00441 46.6999 6.99152 47.3573C6.97862 47.9889 6.66925 48.5948 6.07628 49.1749C5.32863 49.8967 4.64542 50.1803 3.3048 50.3479C1.38409 50.567 1.19073 50.6186 0.791125 50.9538C0.443078 51.2502 0.404406 51.3405 0.404406 52.0624C0.404406 52.5006 0.520422 53.3256 0.649328 53.9057C1.13917 55.9038 1.12628 56.0456 0.546203 57.7858C-0.639734 61.292 -0.265906 61.6788 5.45753 62.7229C7.90675 63.1741 9.17003 63.5092 12.1993 64.5276C15.2415 65.546 15.9118 65.7135 16.8657 65.7006C17.8712 65.6877 18.8638 65.2624 20.2689 64.244C21.4806 63.3803 22.7052 62.9034 24.2907 62.71C26.031 62.478 34.7321 62.478 35.3638 62.6971C36.0341 62.942 36.4466 63.2901 36.9493 64.0893C37.5036 64.953 38.3028 65.4815 39.4759 65.7393C41.1903 66.1389 43.2657 65.8811 44.1036 65.1721C47.5712 62.2331 48.6153 61.5112 51.5415 60.0545C53.8618 58.8944 55.3185 57.9147 55.7181 57.2573C55.847 57.0381 55.963 56.6385 55.963 56.3549C55.963 55.4526 55.4732 54.937 53.5653 53.7897C52.7403 53.287 51.8638 52.4362 51.5415 51.8174C51.245 51.2116 50.9357 50.1803 50.7552 49.162L50.6005 48.221L50.3685 48.6592C50.0591 49.2522 50.072 50.7991 50.3942 51.8432C50.8067 53.1581 51.3095 53.751 52.4567 54.2795C54.2357 55.1045 54.5708 55.3108 54.9446 55.762C55.8857 56.8835 55.0349 57.644 51.2321 59.062C48.7958 59.9772 47.6614 60.5702 46.2306 61.6917C43.5622 63.7542 42.7888 64.1409 41.3708 64.1409C40.4685 64.1409 39.811 63.896 39.231 63.3288C38.2126 62.362 37.9806 61.2663 38.2642 58.7913C38.5735 56.0327 38.522 53.8026 38.1095 51.8948C37.6841 49.987 37.7099 48.7495 38.1739 47.6538C38.8056 46.1971 39.7595 46.4807 40.7263 48.4272C41.5255 50.0385 42.2474 50.5155 43.8974 50.5026C45.2896 50.5026 46.2435 50.0256 47.2876 48.8397C47.9579 48.0663 48.7185 47.2928 49.6595 46.4292C50.1235 45.978 50.304 45.3206 50.3814 43.6319C50.5232 40.667 49.4661 36.6452 47.4423 32.4815C46.4368 30.419 45.7278 29.3491 44.0521 27.4026C40.9841 23.819 39.7337 21.3311 38.87 17.103C38.5993 15.8139 38.5091 14.8729 38.4189 12.5139C38.29 8.91743 38.0966 8.01509 36.9107 5.68189C35.0415 1.9565 31.9735 0.138924 27.3458 0.0100174C26.3919 -0.01577 25.322 0.0100174 24.961 0.0744705ZM32.7985 4.21236C33.7653 4.89556 33.7525 5.23072 32.7728 5.23072C32.5665 5.23072 32.1669 5.41119 31.8575 5.63033C31.4579 5.92681 31.2775 5.99126 31.1614 5.87525C31.0583 5.77212 31.0841 5.63033 31.2517 5.34673C31.3677 5.12759 31.4708 4.72798 31.4708 4.45728C31.4708 4.10923 31.5482 3.91587 31.7028 3.82564C32.0122 3.63228 31.9993 3.63228 32.7985 4.21236ZM31.2646 9.5104C31.5868 9.61353 32.0251 9.91002 32.3989 10.271C33.1982 11.0702 33.5978 12.269 33.5978 13.8674C33.5978 15.4014 33.5075 15.6334 32.9017 15.801C32.0251 16.0331 31.7028 15.685 32.0509 14.86C32.2958 14.267 32.2958 13.6741 32.0509 12.9393C31.7415 12.0627 31.2388 11.6502 30.3751 11.5729C29.7177 11.5213 29.6532 11.5342 29.2278 11.9596C28.9829 12.2045 28.7251 12.6299 28.6478 12.9006C28.4931 13.4678 28.4673 14.7053 28.622 15.0663C28.7251 15.337 30.504 16.1749 32.038 16.6905C32.7599 16.9225 33.1337 17.1288 33.3142 17.3866C33.6107 17.7733 33.6235 17.5284 33.1208 20.2741C32.9146 21.3311 33.1595 22.1174 34.1005 23.4967C35.222 25.1467 35.931 26.7581 36.4337 28.8206C36.6142 29.5553 36.7817 29.9163 37.1427 30.3417C38.7153 32.1206 39.6693 35.5495 39.9528 40.3706C40.1333 43.3483 40.3138 43.6706 41.7318 43.4643C42.7501 43.3354 43.1884 42.8713 43.5364 41.5178C43.7427 40.7444 43.7685 38.6174 43.5751 37.4573C43.2657 35.5108 41.7704 32.0045 40.3525 29.8776C39.7724 29.0139 39.7466 28.9624 40.1075 29.2331C41.229 30.0581 42.9306 32.662 43.4978 34.428C43.9489 35.8073 44.3872 38.2952 44.3872 39.5198C44.4001 40.5897 44.1681 42.1108 43.9103 42.7682C43.8458 42.9358 43.9618 43.0518 44.3872 43.271C45.0446 43.5932 45.7794 44.1346 45.7794 44.2764C45.7794 44.3409 45.4442 44.2506 45.0317 44.0831C42.7759 43.1678 40.2493 43.8768 39.8239 45.5397C39.7079 46.0295 39.6435 46.094 39.3083 46.094C38.4575 46.094 37.7485 46.6483 37.3103 47.6409C36.9751 48.4272 36.9493 50.3092 37.2716 52.7971C37.5939 55.3752 37.581 55.8006 37.0009 58.9846C36.4982 61.7045 36.511 61.6917 36.2661 61.6917C35.9439 61.6917 35.5958 61.292 35.5958 60.9182C35.5958 60.7249 35.8021 59.887 36.0599 59.0362C36.6013 57.2444 36.7946 55.1174 36.4724 54.6792C36.1888 54.3053 35.8021 54.5245 35.1704 55.4139C34.4485 56.4194 33.6107 57.2057 32.7985 57.6053C31.2775 58.3788 29.0216 58.8686 26.8302 58.8944C24.8579 58.9073 23.7751 58.5979 22.6536 57.7085C22.0864 57.2573 21.8157 57.2186 21.429 57.528L21.1454 57.76L21.4806 58.2112C21.9704 58.8557 22.5247 60.003 22.6278 60.5573C22.731 61.0987 22.4989 61.7561 22.0864 62.117C21.8286 62.362 21.8157 62.362 21.7513 61.9237C21.7126 61.6917 21.661 61.1245 21.6224 60.6733C21.5321 59.6936 21.1712 58.8686 20.1915 57.3604C19.8048 56.7674 19.4825 56.2518 19.4825 56.2131C19.4825 56.1874 19.7017 56.0971 19.9724 56.0198C20.5267 55.8393 21.0939 55.3495 21.3775 54.8081C21.6353 54.3053 21.5579 53.0936 21.2228 52.6682C21.0939 52.4877 19.6759 51.276 18.0903 49.9612C14.1974 46.7643 12.1864 44.9081 11.7997 44.1475C10.8329 42.2268 10.7169 39.3651 11.5548 38.2952C11.7353 38.0631 11.7482 38.1018 11.6579 38.9397C11.5032 40.2803 11.5806 41.5436 11.8771 42.4975C12.238 43.6835 13.1532 44.7792 13.6302 44.5858C13.9653 44.4569 14.0814 43.7479 14.1845 41.26C14.2876 38.7463 14.3005 38.6432 14.7903 37.1995C15.4349 35.2659 16.9946 32.1463 17.665 31.4502C18.1677 30.9088 18.1677 30.9088 18.0001 30.419C17.5618 29.2073 17.8068 28.1631 19.1345 25.4948C19.8821 23.9866 20.1271 23.3678 20.1915 22.762C20.2431 22.3366 20.3204 21.9885 20.372 21.9885C20.5138 21.9885 21.0294 22.5815 21.7384 23.5354C22.9501 25.1725 23.6075 25.7268 24.3681 25.7268C24.8966 25.7268 26.1083 25.0694 27.8614 23.8319C28.6735 23.2518 29.9239 22.4655 30.6329 22.0917C31.7157 21.4987 31.922 21.3311 31.922 21.0733C31.922 20.8155 31.8446 20.751 31.4966 20.7252C31.1743 20.6866 30.7232 20.8799 29.563 21.5245C27.0364 22.9167 25.7732 23.3163 24.4841 23.1487C23.6978 23.0327 23.195 22.8135 22.5892 22.2979C21.8931 21.7178 22.022 21.6405 23.672 21.7049C24.5743 21.7436 25.3864 21.7049 25.7603 21.6147C26.6239 21.3956 31.8704 19.2944 32.154 19.0495C32.4763 18.7659 32.386 18.3276 31.9864 18.276C31.7544 18.2502 31.5482 18.3663 31.2388 18.6885C30.7618 19.1913 29.6017 19.6811 27.3845 20.3256C25.4896 20.867 23.2982 20.996 22.4216 20.5963C22.0993 20.4545 21.6482 20.1065 21.429 19.8229C21.197 19.5393 20.7587 19.1268 20.4364 18.9077C20.1271 18.6756 19.8693 18.4049 19.8693 18.2889C19.8693 17.8249 20.3204 17.1803 20.9521 16.7807C21.313 16.5487 22.0091 15.9557 22.4989 15.4659L23.3884 14.5893V13.8545C23.3755 13.0167 22.9888 12.0241 22.6021 11.8178C21.8931 11.444 20.965 11.8049 20.6427 12.5784C20.3075 13.4034 20.7587 15.0792 21.3646 15.2338C21.7255 15.3241 21.7513 15.4917 21.4548 15.8268C21.081 16.2393 20.7845 16.1104 20.4493 15.3756C19.7532 13.8545 19.7661 12.3335 20.488 10.9026C20.9005 10.0776 21.3517 9.71666 21.9575 9.71666C22.6278 9.71666 23.1693 10.0518 23.5431 10.7092C23.9814 11.4569 24.136 12.037 24.2392 13.2874L24.3165 14.3186L25.4767 14.396C26.1212 14.4346 26.7657 14.5377 26.9204 14.6151C27.1911 14.7698 27.1911 14.7698 27.1782 13.3131C27.1525 11.9983 27.1782 11.8049 27.4876 11.1475C28.1579 9.72955 29.7177 9.04634 31.2646 9.5104ZM31.2775 12.5913C31.4837 12.8491 31.5997 13.1198 31.5739 13.326C31.5224 13.803 31.2646 13.8159 31.1743 13.3518C31.1228 13.1327 30.9423 12.8233 30.7618 12.6557C30.4525 12.3592 30.4525 12.1917 30.7747 12.1917C30.865 12.1917 31.0841 12.3721 31.2775 12.5913ZM22.5247 12.7717C22.731 13.0811 22.8341 13.919 22.6794 14.0737C22.4989 14.2413 22.3185 13.9577 22.3185 13.4807C22.3185 13.1713 22.254 12.9651 22.1251 12.9135C21.8802 12.8233 21.8673 12.4495 22.1251 12.4495C22.2282 12.4495 22.4087 12.5913 22.5247 12.7717ZM37.5036 20.7639C38.1739 20.9057 38.4189 21.7307 37.929 22.169C37.5939 22.4655 37.2587 22.3495 36.5626 21.7178C35.8407 21.0604 35.5056 20.2999 35.7118 19.8487L35.8665 19.5135L36.4853 20.0936C36.8204 20.403 37.2845 20.7124 37.5036 20.7639ZM14.5196 31.7467C14.365 32.3784 14.0427 32.9585 13.7204 33.1647C13.5528 33.2807 13.3853 33.3452 13.3595 33.3065C13.2435 33.1905 14.2489 31.3987 14.4294 31.3987C14.5583 31.3987 14.5841 31.4889 14.5196 31.7467Z"/>
<path d="M23.4884 15.2492C23.308 15.3395 23.1533 15.507 23.1275 15.6359C23.063 15.9711 23.2822 15.8938 23.5916 15.4684C23.7591 15.2492 23.8623 15.0817 23.8494 15.0817C23.8236 15.0817 23.6689 15.159 23.4884 15.2492Z"/>
<path d="M26.827 15.3399C27.1363 15.5977 27.4844 15.688 27.4844 15.4946C27.4844 15.2883 27.1621 15.0821 26.8527 15.0821L26.5176 15.095L26.827 15.3399Z"/>
</svg>
