<svg viewBox="0 0 43 43" xmlns="http://www.w3.org/2000/svg">
<g clip-path="url(#clip0_1_3840)">
<path d="M42.6071 40.6922L29.5504 27.5556C31.984 24.641 33.4507 20.8913 33.4507 16.7969C33.4507 7.5203 25.9304 0 16.6538 0C7.37723 0 -0.143066 7.5203 -0.143066 16.7969C-0.143066 26.0735 7.37723 33.5938 16.6538 33.5938C20.8685 33.5938 24.7183 32.0377 27.6679 29.4725L40.7063 42.5928C41.231 43.1176 42.0823 43.1176 42.607 42.5928C43.1311 42.0681 43.1311 41.2175 42.607 40.6922H42.6071ZM16.6538 30.9284C8.84931 30.9284 2.52226 24.6014 2.52226 16.7969C2.52226 8.99237 8.84931 2.66533 16.6538 2.66533C24.4583 2.66533 30.7854 8.99237 30.7854 16.7969C30.7854 24.6014 24.4583 30.9284 16.6538 30.9284Z"/>
</g>
<defs>
<clipPath id="clip0_1_3840">
<rect width="43" height="43"/>
</clipPath>
</defs>
</svg>
