<?xml version="1.0" encoding="iso-8859-1"?>
<!-- Generator: Adobe Illustrator 19.0.0, SVG Export Plug-In . SVG Version: 6.00 Build 0)  -->
<svg version="1.1" id="Layer_1" xmlns="http://www.w3.org/2000/svg" xmlns:xlink="http://www.w3.org/1999/xlink" x="0px" y="0px"
	 viewBox="0 0 512 512" style="enable-background:new 0 0 512 512;" xml:space="preserve">
<rect x="166.281" y="81.747" transform="matrix(-0.7071 -0.7071 0.7071 -0.7071 247.346 346.0311)" style="fill:#A5F2E5;" width="58.114" height="80.083"/>
<path d="M181.666,188.363c1.63,1.63,3.767,2.445,5.903,2.445s4.272-0.815,5.903-2.445l62.529-62.529l62.529,62.529
	c1.63,1.63,3.767,2.445,5.903,2.445s4.272-0.815,5.903-2.445l52.897-52.897c3.26-3.26,3.26-8.544,0-11.803L353.65,94.081
	c-3.261-3.259-8.545-3.26-11.804,0l0,0c-3.26,3.26-3.26,8.545,0,11.804l23.68,23.681l-41.093,41.093L215.014,61.242l41.093-41.093
	l56.468,56.468c3.26,3.26,8.544,3.26,11.804,0l0,0c3.26-3.26,3.26-8.544,0-11.803L262.008,2.44
	c-1.658-1.657-3.838-2.467-6.011-2.439c-2.17-0.027-4.349,0.783-6.006,2.439L128.768,123.662c-1.565,1.565-2.444,3.688-2.444,5.902
	s0.879,4.337,2.444,5.902L181.666,188.363z M203.102,72.937l41.093,41.093l-56.627,56.627l-41.094-41.093L203.102,72.937z"/>
<path style="fill:#62D9C7;" d="M312.574,76.614l-56.468-56.468l-41.093,41.093l109.418,109.418l41.093-41.093l-23.68-23.681
	c-3.26-3.26-3.26-8.545,0-11.804l-17.466-17.466C321.118,79.874,315.834,79.874,312.574,76.614z"/>
<rect x="166.269" y="245.809" transform="matrix(-0.7071 -0.7071 0.7071 -0.7071 131.3168 626.0929)" style="fill:#A5F2E5;" width="58.114" height="80.083"/>
<path style="fill:#62D9C7;" d="M312.574,240.668L256.106,184.2l-41.093,41.093l109.418,109.418l41.093-41.093l-23.68-23.68
	c-3.26-3.26-3.26-8.545,0-11.804l-17.466-17.466C321.118,243.928,315.834,243.928,312.574,240.668z"/>
<path d="M353.648,258.135c-3.261-3.259-8.545-3.26-11.804,0c-3.26,3.26-3.26,8.545,0,11.804l23.68,23.68l-41.093,41.093
	L215.013,225.294l41.093-41.093l56.468,56.468c3.26,3.26,8.544,3.26,11.804,0l0,0c3.26-3.26,3.26-8.545,0-11.804l-62.371-62.369
	c-1.657-1.657-3.837-2.467-6.008-2.439c-2.171-0.028-4.351,0.782-6.008,2.439L128.768,287.716c-1.565,1.565-2.444,3.688-2.444,5.902
	c0,2.214,0.879,4.337,2.444,5.902l52.898,52.897c1.63,1.63,3.767,2.445,5.903,2.445s4.272-0.815,5.903-2.445l62.529-62.529
	l62.529,62.529c1.566,1.565,3.688,2.445,5.903,2.445s4.336-0.879,5.903-2.445l52.897-52.897c3.26-3.26,3.26-8.544,0-11.803
	L353.648,258.135z M203.102,236.991l41.093,41.093l-56.627,56.627l-41.094-41.093L203.102,236.991z"/>
<rect x="166.286" y="402.939" transform="matrix(-0.7071 -0.7071 0.7071 -0.7071 20.2368 894.342)" style="fill:#A5F2E5;" width="58.114" height="80.083"/>
<path style="fill:#62D9C7;" d="M312.574,397.806l-56.468-56.468l-41.093,41.093L324.431,491.85l41.093-41.093l-23.68-23.68
	c-3.26-3.26-3.26-8.545,0-11.803l0,0l-17.466-17.466C321.118,401.066,315.834,401.066,312.574,397.806z"/>
<path d="M353.648,415.272c-3.261-3.259-8.545-3.26-11.804,0l0,0c-3.26,3.26-3.26,8.544,0,11.803l23.68,23.68l-41.093,41.093
	L215.013,382.431l41.093-41.093l56.468,56.468c3.26,3.26,8.544,3.26,11.804,0l0,0c3.26-3.26,3.26-8.545,0-11.804l-62.371-62.369
	c-1.657-1.656-3.836-2.467-6.006-2.439c-2.171-0.028-4.352,0.782-6.01,2.439L128.768,444.855c-1.565,1.565-2.444,3.688-2.444,5.902
	c0,2.214,0.879,4.337,2.444,5.902l52.898,52.897c1.63,1.629,3.767,2.445,5.903,2.445s4.272-0.815,5.903-2.445l62.529-62.529
	l62.529,62.529c1.566,1.565,3.688,2.445,5.903,2.445s4.336-0.879,5.903-2.445l52.897-52.897c3.26-3.26,3.26-8.544,0-11.803
	L353.648,415.272z M203.102,394.129l41.093,41.093l-56.627,56.627l-41.094-41.093L203.102,394.129z"/>
<g>
</g>
<g>
</g>
<g>
</g>
<g>
</g>
<g>
</g>
<g>
</g>
<g>
</g>
<g>
</g>
<g>
</g>
<g>
</g>
<g>
</g>
<g>
</g>
<g>
</g>
<g>
</g>
<g>
</g>
</svg>
