<svg viewBox="0 0 43 50" fill="none" xmlns="http://www.w3.org/2000/svg">
<path d="M20.2139 0.907846C17.143 1.28933 14.5775 2.5387 12.4412 4.70363C10.5433 6.62059 9.45604 8.66154 8.89335 11.3415C8.66446 12.4669 8.66446 14.9847 8.89335 16.1101C9.45604 18.79 10.5528 20.8405 12.4412 22.7479C14.3581 24.6839 16.4563 25.8189 19.1649 26.3816C20.2807 26.6104 22.789 26.6104 23.9525 26.3816C26.5275 25.8665 28.6638 24.7221 30.5713 22.8337C32.4978 20.9358 33.6422 18.8186 34.2049 16.1101C34.4338 14.9847 34.4338 12.4669 34.2049 11.3415C33.833 9.57711 33.1558 7.94626 32.183 6.47754C31.5822 5.57151 29.7225 3.70223 28.8355 3.12046C27.3 2.09999 25.6406 1.40378 24.0097 1.08905C23.2372 0.936457 20.8815 0.822012 20.2139 0.907846Z" fill="black"/>
<path d="M16.4274 29.6145C11.0866 30.263 6.27031 33.2863 3.17074 37.95C1.34914 40.6776 0.309593 43.9012 0.128387 47.3441C0.0711642 48.4027 0.0807013 48.5267 0.271444 48.8986C0.404964 49.1657 0.595707 49.3564 0.85321 49.4899C1.22516 49.6807 1.36821 49.6807 21.5488 49.6807C41.7294 49.6807 41.8725 49.6807 42.2444 49.4899C42.5019 49.3564 42.6926 49.1657 42.8262 48.8986C43.0169 48.5267 43.0264 48.4027 42.9692 47.3441C42.7213 42.6423 40.9283 38.5222 37.6666 35.1461C34.5765 31.9511 30.59 30.0055 26.2315 29.5573C24.7914 29.4142 17.753 29.4524 16.4274 29.6145Z" fill="black"/>
</svg>
