<svg id="vk" width="44" height="25" viewBox="0 0 44 25" xmlns="http://www.w3.org/2000/svg">
<path d="M13.4953 10.6473C14.9296 12.824 16.0942 12.5868 16.4973 12.1961C17.8315 7.9767 17.22 4.71729 16.7474 3.61501C16.614 2.54343 15.2742 2.21972 14.621 2.19181C14.6877 0.316538 19.9857 0.350025 22.6263 0.601178C25.2947 0.668152 25.5449 1.98252 25.5449 2.77784C25.1446 8.53761 25.3781 11.0659 25.5449 11.61C25.9118 12.4807 26.7123 12.6565 27.0459 12.1961C28.28 11.6603 31.6739 6.00097 32.758 3.15457C33.1249 1.91555 33.8837 1.68951 34.2173 1.73137L41.6805 1.60579C42.5144 1.53881 42.973 2.16391 43.0981 2.48482C43.0981 5.16379 37.9697 10.8984 37.7196 11.4426C35.76 13.7867 35.9156 14.7495 36.4688 15.2936C40.5965 19.3539 41.8195 21.2794 42.5144 22.0329C44.5491 25.549 39.8043 24.7956 37.1776 24.9212C33.8003 25.0826 32.2417 24.7956 30.3397 22.0329C26.4205 16.3401 25.3642 20.6934 25.4198 23.0375C25.4865 24.243 24.6137 24.7119 24.169 24.7956C10.1598 26.3444 5.5734 12.1961 1.15382 4.45219C-0.14704 2.3425 0.611794 1.70346 1.15382 1.64765H7.24116C8.17511 1.48021 9.02011 2.05228 9.32587 2.35925C10.0597 4.60288 12.4112 8.81946 13.4953 10.6473Z"/>
</svg>
