<svg id="windows" width="67" height="63" viewBox="0 0 67 63" xmlns="http://www.w3.org/2000/svg">
<path d="M50.1191 2.09414C41.0898 3.23262 33.657 4.16172 33.6047 4.17481C33.5393 4.17481 33.5 9.82793 33.5 16.7373V29.2998H50.25H67V14.6436C67 0.772463 66.9869 -0.0126915 66.7775 0.000392914C66.6467 0.0134792 59.1484 0.942581 50.1191 2.09414Z"/>
<path d="M14.5254 6.54336C6.64766 7.53789 0.157031 8.34922 0.104687 8.3623C0.0392578 8.3623 0 13.0732 0 18.8311V29.2998H14.6562H29.3125V16.999C29.3125 5.36562 29.2994 4.69824 29.09 4.71133C28.9592 4.72441 22.4031 5.53574 14.5254 6.54336Z"/>
<path d="M0 43.9422V54.3979L0.497266 54.4764C0.758984 54.5156 7.13184 55.327 14.6562 56.2561C22.1807 57.1852 28.5535 57.9965 28.8283 58.0357L29.3125 58.1143V45.8004V33.4865H14.6562H0V43.9422Z"/>
<path d="M33.4668 46.0164V58.5658L33.9641 58.6443C34.2258 58.6836 41.5408 59.6127 50.2168 60.6857C58.8928 61.7588 66.2078 62.6879 66.4826 62.7271L66.9668 62.8057V48.1363V33.467H50.2168H33.4668V46.0164Z"/>
</svg>
