<svg width="38" height="43" viewBox="0 0 38 43" fill="none" xmlns="http://www.w3.org/2000/svg">
<path fill-rule="evenodd" clip-rule="evenodd" d="M18.9395 43L24.3887 39.9077V33.7229C24.3887 33.7229 17.9889 30.0904 14.9212 28.3492L13.3433 29.2593C13.3908 32.7206 13.4914 39.9077 13.4914 39.9077L18.9395 43ZM10.8962 32.2495V21.5033L9.30585 20.6144C6.28114 22.3867 0 26.0647 0 26.0647V32.2495L5.4481 35.3419L10.8962 32.2495ZM37.8801 32.2495V26.0647L32.432 22.9723C32.432 22.9723 26.0333 26.6047 22.9645 28.3459L22.977 30.1449C26.0503 31.8339 32.432 35.3419 32.432 35.3419L37.8801 32.2495ZM37.8801 10.7495L32.432 7.65705L26.9828 10.7495V21.4967L28.5742 22.3856C31.599 20.6133 37.8801 16.9342 37.8801 16.9342V10.7495ZM5.4481 20.0266C5.4481 20.0266 11.8468 16.3953 14.9156 14.6541L14.9031 12.8551C11.8298 11.1662 5.4481 7.65705 5.4481 7.65705L0 10.7495V16.9342L5.4481 20.0266ZM13.4914 9.27715C13.4914 9.27715 19.8901 12.9084 22.9589 14.6508L24.5368 13.7407C24.4882 10.2795 24.3887 3.0924 24.3887 3.0924L18.9395 0L13.4914 3.0924V9.27715Z" fill="black"/>
</svg>
