<svg id="logo" width="167" height="43" viewBox="0 0 167 43" fill="none" xmlns="http://www.w3.org/2000/svg">
<path fill-rule="evenodd" clip-rule="evenodd" d="M18.9395 43L24.3887 39.9077V33.7229C24.3887 33.7229 17.9889 30.0904 14.9212 28.3492L13.3433 29.2593C13.3908 32.7206 13.4914 39.9077 13.4914 39.9077L18.9395 43ZM10.8962 32.2495V21.5033L9.30585 20.6144C6.28114 22.3867 0 26.0647 0 26.0647V32.2495L5.4481 35.3419L10.8962 32.2495ZM37.8801 32.2495V26.0647L32.432 22.9723C32.432 22.9723 26.0333 26.6047 22.9645 28.3459L22.977 30.1449C26.0503 31.8339 32.432 35.3419 32.432 35.3419L37.8801 32.2495ZM37.8801 10.7495L32.432 7.65705L26.9828 10.7495V21.4967L28.5742 22.3856C31.599 20.6133 37.8801 16.9342 37.8801 16.9342V10.7495ZM5.4481 20.0266C5.4481 20.0266 11.8468 16.3953 14.9156 14.6541L14.9031 12.8551C11.8298 11.1662 5.4481 7.65705 5.4481 7.65705L0 10.7495V16.9342L5.4481 20.0266ZM13.4914 9.27715C13.4914 9.27715 19.8901 12.9084 22.9589 14.6508L24.5368 13.7407C24.4882 10.2795 24.3887 3.0924 24.3887 3.0924L18.9395 0L13.4914 3.0924V9.27715Z" fill="black"/>
<path fill-rule="evenodd" clip-rule="evenodd" d="M76.5202 15.8961V25.303C76.5202 27.0159 76.5559 28.1002 77.3409 28.9628C78.126 29.8254 79.6931 29.8646 80.6716 29.8646C81.6499 29.8646 83.217 29.7884 84.0021 28.9258C84.7524 28.1013 84.8182 27.1323 84.8225 25.4969H84.8227V15.8961H90.6518V34.4492L85.5127 34.4511C85.5127 34.4511 85.199 33.5163 84.9377 32.7379L83.9963 32.5887C82.8046 34.1869 81.4628 34.9743 79.4457 34.9743C76.3103 34.9743 74.6327 34.4983 72.8233 32.7195C71.0138 30.9407 70.8225 27.4151 70.8225 25.1727V15.8961H76.5202ZM119.013 15.3431C121.364 15.3431 124.901 15.7864 126.716 17.5715C128.532 19.3565 128.984 22.8345 128.984 25.1448C128.984 27.4551 128.532 30.9331 126.716 32.7182C124.901 34.5033 121.364 34.9465 119.013 34.9465C116.663 34.9465 113.125 34.5033 111.309 32.7182C109.493 30.9331 109.043 27.4551 109.043 25.1448C109.043 22.8345 109.493 19.3565 111.309 17.5715C113.125 15.7864 116.663 15.3431 119.013 15.3431ZM157.883 22.1165L158.477 21.4383C158.473 21.2643 158.468 21.0988 158.459 21.0113C158.407 20.4642 158.247 19.9611 157.768 19.4899C157.081 18.8149 156.061 18.7843 155.206 18.7843C154.35 18.7843 153.212 18.8149 152.527 19.4899C152.271 19.7407 152.107 20.0846 152 20.4607H146.722C147.218 16.977 150.008 15.1183 154.144 15.0744C154.229 15.0735 155.705 15.0711 155.79 15.0717C160.195 15.1037 164.313 17.1576 164.313 21.4507C164.313 21.4507 164.313 20.573 164.313 28.794C164.313 31.0043 164.577 31.2644 166.948 30.7584C166.948 32.2542 167 33.133 167 34.0712C163.985 34.9931 160.785 35.0416 159.465 32.4219L158.639 32.2563C156.779 33.777 154.312 34.6495 152.209 34.6741C150.68 34.692 149.435 34.6295 148.174 34.151C145.875 33.2792 145.392 31.026 145.392 29.0269C145.392 27.0406 146.324 24.2906 150.499 23.3456C153.68 22.6257 156.65 22.2531 157.883 22.1165ZM99.5162 27.453C99.5162 22.4422 101.274 20.7764 106.372 20.7764H107.074V15.8961H106.151C103.531 15.8961 101.564 16.9828 100.055 18.1327L99.2983 17.906C99.0348 17.1171 98.6261 15.8961 98.6261 15.8961H93.6881V34.4511H99.5162V27.453ZM63.6419 8.02344L69.8743 34.4492H63.9368C63.9368 34.4492 63.1427 31.0825 62.8044 29.6481L61.9915 29.0131H55.1181L54.3052 29.6481C53.9668 31.0825 53.1729 34.4492 53.1729 34.4492H47.2354L53.4676 8.02344H63.6419ZM137.062 27.1811C137.062 22.1701 138.82 20.5043 143.916 20.5043H144.618V15.6241H143.696C141.075 15.6241 139.108 16.7108 137.599 17.8607L136.842 17.6339C136.579 16.8452 136.17 15.6241 136.17 15.6241H131.232V34.1792H137.062V27.1811ZM158.355 26.3919L157.768 25.7433C153.534 26.5297 150.607 27.2349 150.607 28.7106C150.607 30.2703 152.285 30.263 153.529 30.0924C156.077 29.7431 157.848 27.8485 158.355 26.3919ZM119.013 20.3795C120.156 20.3795 121.985 20.4204 122.902 21.3216C123.818 22.2227 123.86 24.0217 123.86 25.1448C123.86 26.2681 123.818 28.067 122.902 28.968C121.985 29.8692 120.156 29.9102 119.013 29.9102C117.871 29.9102 116.04 29.8692 115.124 28.968C114.207 28.067 114.165 26.2681 114.165 25.1448C114.165 24.0217 114.207 22.2227 115.124 21.3216C116.04 20.4204 117.871 20.3795 119.013 20.3795ZM59.054 13.7459C58.7407 13.5356 58.4049 13.5224 58.0556 13.7459L55.8064 23.2826H61.3032L59.054 13.7459Z" fill="black"/>
</svg>
